<svg xmlns="http://www.w3.org/2000/svg" xmlns:xlink="http://www.w3.org/1999/xlink" width="93" height="26" viewBox="0 0 93 26">
    <defs>
        <path id="s470lqmz5a" d="M0 0.144L92.821 0.144 92.821 24.224 0 24.224z"/>
        <path id="mhpq02jm6c" d="M0 24.359L92.822 24.359 92.822 0.278 0 0.278z"/>
    </defs>
    <g fill="none" fill-rule="evenodd">
        <g transform="translate(0 .134)">
            <mask id="93f7flucub" fill="#fff">
                <use xlink:href="#s470lqmz5a"/>
            </mask>
            <path fill="#141F40" d="M6.227.144L2.387 5.88v4.298l.006.016v6.146c0 1.84-.035 2.247-.572 3.084C1.284 20.26.677 20.749 0 20.889v3.22s1.948.547 4.97-2.043c.261.327.587.641.982.941.746.568 1.497.923 2.25 1.064h.002v-.001l.422-.447v.544h1.495c.509 0 .931-.13 1.27-.386h.003l.02-.017.022-.017 1.196-.95v1.37h1.284c.5 0 .932-.129 1.295-.386l.102-.081c.024-.02.048-.036.07-.056l5.935-4.71h2.565v5.233h2.32c.393 0 .745-.13 1.056-.386h.003l.022-.019c.004-.002.008-.004.01-.007l.006-.005s5.38-4.226 5.504-4.334c.332-.285.57-.62.716-.988h2.622v1.668c.022.316.111.55.277.688.191.16.472.24.843.24h9.565v3.2h2.396c.409 0 .76-.124 1.054-.373.027-.023.051-.047.075-.07l3.59-2.85v.495c0 .78.33 1.438.988 1.974.657.537 1.46.805 2.405.805h8.51c.929 0 1.717-.26 2.37-.777h.003l2.971-2.36v1.661c0 .435.115.764.345.987.23.224.562.336.997.336h3.144c.523 0 1.066-.058 1.629-.173.485-.089.92-.21 1.303-.364v.652h1.764c.508 0 .93-.13 1.27-.386h.003l.025-.02.013-.01 1.487-1.18v1.596h1.476c.598 0 1.096-.186 1.498-.553h.003l5.433-4.273h-.003c.104-.087.206-.18.301-.283.183-.197.338-.409.469-.63 0 0 .475-.701.475-2.18V.145H6.227z" mask="url(#93f7flucub)"/>
        </g>
        <path fill="#FFF" d="M17.382 1.484h3.546v15.353c0 .588-.21 1.109-.632 1.562-.422.454-.965.68-1.63.68h-1.284V1.485zm-.517 15.68c0 .561-.183 1.021-.547 1.38-.364.357-.846.536-1.447.536h-1.495v-8.913h-.748c-.32 0-.581-.1-.786-.297-.204-.198-.306-.457-.306-.777V6.985h1.84V1.484h3.489v15.68zm-3.91 1.82c-.755-.14-1.506-.495-2.253-1.064-.748-.569-1.256-1.185-1.524-1.85-.307.729-.923 1.4-1.85 2.013-.926.614-1.785.926-2.578.94v-3.22c.677-.141 1.285-.63 1.821-1.467.537-.837.805-2.176.805-4.016V1.503h3.566v8.817c0 1.623.188 2.853.565 3.69.377.837.86 1.39 1.447 1.658v3.316z"/>
        <mask id="63v3kld0hd" fill="#fff">
            <use xlink:href="#mhpq02jm6c"/>
        </mask>
        <path fill="#FFF" d="M27.08 6.812h6.786V4.493H27.08v2.32zm-3.89-5.271h14.548V8.71c0 .37-.093.64-.278.805-.185.166-.463.25-.834.25H24.301c-.37 0-.648-.084-.834-.25-.185-.166-.277-.434-.277-.805V1.541zm9.334 12.306v3.833c0 .384-.16.713-.479.987-.32.276-.684.413-1.092.413h-2.32v-5.233h-5.175c-.41 0-.716-.092-.92-.278-.205-.185-.307-.482-.307-.891v-1.783h16.446v1.783c0 .409-.102.706-.306.891-.205.186-.512.278-.92.278h-4.927zM55.487 2.691c0 .37-.096.642-.287.815-.192.172-.473.258-.844.258h-9.564v.441h10.695V5.28c0 .37-.096.642-.287.815-.192.172-.473.258-.844.258h-9.564v.46h10.791v1.285c0 .37-.096.642-.287.814-.192.173-.473.26-.844.26H42.051c-.371 0-.652-.087-.844-.26-.192-.172-.287-.444-.287-.814V1.445h14.567v1.246zm-.019 15.124c0 .383-.147.7-.44.949-.295.249-.646.373-1.055.373h-2.396v-3.2h-9.565c-.37 0-.651-.08-.843-.24-.192-.16-.288-.438-.288-.834v-1.898h14.587v4.85zm-14.26-5.406c-.41 0-.717-.092-.92-.278-.205-.185-.307-.482-.307-.89V9.706h16.445v1.533c0 .41-.102.706-.306.891-.205.186-.511.278-.92.278H41.207zM70.213 15.63c0-.141-.064-.256-.192-.345-.128-.09-.409-.135-.844-.135h-5.635c-.435 0-.715.045-.843.135-.128.089-.192.204-.192.345 0 .127.064.236.192.325.128.09.408.135.843.135h5.635c.435 0 .716-.045.844-.135.128-.089.192-.198.192-.325zM58.98 1.465h14.606v2.51c0 .601-.054 1.278-.163 2.032-.108.754-.29 1.432-.546 2.032H69.16c.178-.486.312-1.035.402-1.648.089-.614.134-1.15.134-1.61v-.365H60.13c-.306 0-.578-.105-.814-.316-.237-.21-.355-.501-.355-.872l.02-1.763zm15.01 14.874c0 .78-.33 1.437-.988 1.974-.659.537-1.46.805-2.406.805h-8.51c-.946 0-1.748-.268-2.406-.805-.658-.537-.987-1.195-.987-1.974V14.9c0-.78.329-1.44.987-1.984.658-.543 1.46-.814 2.405-.814h8.511c.945 0 1.747.271 2.406.814.658.544.987 1.205.987 1.984v1.438zm-14.665-4.83c-.408 0-.715-.093-.92-.278-.204-.186-.306-.482-.306-.892V8.557h4.945v-2.99h3.891v2.99h7.61v1.782c0 .41-.103.706-.307.892-.204.185-.511.277-.92.277H59.325zM91.024 18.4c-.421.453-.965.68-1.629.68H87.92v-8.357h-.805v6.44c0 .562-.182 1.022-.546 1.38-.364.358-.847.537-1.447.537h-1.764v-.652c-.383.153-.818.275-1.303.364-.562.115-1.106.173-1.63.173h-3.143c-.435 0-.767-.112-.997-.336-.23-.223-.345-.552-.345-.987v-16.1h6.728l.02 1.916c0 .37-.096.642-.288.815-.192.172-.473.258-.844.258h-1.801v11.463h.766c.384 0 .837-.045 1.361-.134.486-.09.978-.237 1.476-.441V1.484h3.757v6.038h.805V1.484h3.738v15.353c0 .588-.21 1.109-.633 1.562" mask="url(#63v3kld0hd)"/>
    </g>
</svg>
